HIERARCHY
ROOT Hips
{
	OFFSET 0.000000 0.000000 0.000000
	CHANNELS 6 Xposition Yposition Zposition Zrotation Yrotation Xrotation 
	JOINT LHipJoint
	{
		OFFSET 0.000000 0.000000 0.000000
		CHANNELS 3 Zrotation Yrotation Xrotation
		JOINT LeftUpLeg
		{
			OFFSET 1.363060 -1.794630 0.839290
			CHANNELS 3 Zrotation Yrotation Xrotation
			JOINT LeftLeg
			{
				OFFSET 2.448110 -6.726130 0.000000
				CHANNELS 3 Zrotation Yrotation Xrotation
				JOINT LeftFoot
				{
					OFFSET 2.562200 -7.039590 0.000000
					CHANNELS 3 Zrotation Yrotation Xrotation
					JOINT LeftToeBase
					{
						OFFSET 0.157640 -0.433110 2.322550
						CHANNELS 3 Zrotation Yrotation Xrotation
						End Site
						{
							OFFSET 0.000000 0.000000 0.000000
						}
					}
				}
			}
		}
	}
	JOINT RHipJoint
	{
		OFFSET 0.000000 0.000000 0.000000
		CHANNELS 3 Zrotation Yrotation Xrotation
		JOINT RightUpLeg
		{
			OFFSET -1.305520 -1.794630 0.839290
			CHANNELS 3 Zrotation Yrotation Xrotation
			JOINT RightLeg
			{
				OFFSET -2.542530 -6.985550 0.000000
				CHANNELS 3 Zrotation Yrotation Xrotation
				JOINT RightFoot
				{
					OFFSET -2.568260 -7.056230 0.000000
					CHANNELS 3 Zrotation Yrotation Xrotation
					JOINT RightToeBase
					{
						OFFSET -0.164730 -0.452590 2.363150
						CHANNELS 3 Zrotation Yrotation Xrotation
						End Site
						{
							OFFSET 0.000000 0.000000 0.000000
						}
					}
				}
			}
		}
	}
	JOINT LowerBack
	{
		OFFSET 0.000000 0.000000 0.000000
		CHANNELS 3 Zrotation Yrotation Xrotation
		JOINT Spine
		{
			OFFSET 0.028270 2.035590 -0.193380
			CHANNELS 3 Zrotation Yrotation Xrotation
			JOINT Spine1
			{
				OFFSET 0.056720 2.048850 -0.042750
				CHANNELS 3 Zrotation Yrotation Xrotation
				JOINT Neck
				{
					OFFSET 0.000000 0.000000 0.000000
					CHANNELS 3 Zrotation Yrotation Xrotation
					JOINT Neck1
					{
						OFFSET -0.054170 1.746240 0.172020
						CHANNELS 3 Zrotation Yrotation Xrotation
						JOINT Head
						{
							OFFSET 0.104070 1.761360 -0.123970
							CHANNELS 3 Zrotation Yrotation Xrotation
							End Site
							{
								OFFSET 0.000000 0.000000 0.000000
							}
						}
					}
				}
				JOINT LeftShoulder
				{
					OFFSET 0.000000 0.000000 0.000000
					CHANNELS 3 Zrotation Yrotation Xrotation
					JOINT LeftArm
					{
						OFFSET 3.362410 1.200890 -0.311210
						CHANNELS 3 Zrotation Yrotation Xrotation
						JOINT LeftForeArm
						{
							OFFSET 4.983000 -0.000000 -0.000000
							CHANNELS 3 Zrotation Yrotation Xrotation
							JOINT LeftHand
							{
								OFFSET 3.483560 -0.000000 -0.000000
								CHANNELS 3 Zrotation Yrotation Xrotation
								JOINT LeftFingerBase
								{
									OFFSET 0.000000 0.000000 0.000000
									CHANNELS 3 Zrotation Yrotation Xrotation
									JOINT LeftHandIndex1
									{
										OFFSET 0.715260 -0.000000 -0.000000
										CHANNELS 3 Zrotation Yrotation Xrotation
										End Site
										{
											OFFSET 0.000000 0.000000 0.000000
										}
									}
								}
								JOINT LThumb
								{
									OFFSET 0.000000 0.000000 0.000000
									CHANNELS 3 Zrotation Yrotation Xrotation
									End Site
									{
										OFFSET 0.000000 0.000000 0.000000
									}
								}
							}
						}
					}
				}
				JOINT RightShoulder
				{
					OFFSET 0.000000 0.000000 0.000000
					CHANNELS 3 Zrotation Yrotation Xrotation
					JOINT RightArm
					{
						OFFSET -3.136600 1.374050 -0.404650
						CHANNELS 3 Zrotation Yrotation Xrotation
						JOINT RightForeArm
						{
							OFFSET -5.241900 -0.000000 -0.000000
							CHANNELS 3 Zrotation Yrotation Xrotation
							JOINT RightHand
							{
								OFFSET -3.444170 -0.000000 -0.000000
								CHANNELS 3 Zrotation Yrotation Xrotation
								JOINT RightFingerBase
								{
									OFFSET 0.000000 0.000000 0.000000
									CHANNELS 3 Zrotation Yrotation Xrotation
									JOINT RightHandIndex1
									{
										OFFSET -0.622530 -0.000000 -0.000000
										CHANNELS 3 Zrotation Yrotation Xrotation
										End Site
										{
											OFFSET 0.000000 0.000000 0.000000
										}
									}
								}
								JOINT RThumb
								{
									OFFSET 0.000000 0.000000 0.000000
									CHANNELS 3 Zrotation Yrotation Xrotation
									End Site
									{
										OFFSET 0.000000 0.000000 0.000000
									}
								}
							}
						}
					}
				}
			}
		}
	}
}
MOTION
Frames: 10
Frame Time: 0.008333
2.193119 17.451363 4.957068 -0.350889 -49.950948 5.162592 0.135886 0.753683 0.276711 -9.741476 -16.127871 -28.472157 0.268100 8.466027 23.213328 -0.065692 4.248140 12.228393 0.117900 -2.213500 -6.096000 -2.459162 -2.604023 1.488274 26.983485 4.275743 10.130517 -3.370868 -10.115367 34.400471 -2.368792 4.697414 29.393796 -0.220600 -3.023400 8.344000 1.942512 4.112695 5.625189 0.676527 5.220624 -2.250557 0.674532 3.137671 -5.041014 -7.613610 -3.853519 -10.134293 5.121659 -4.635780 16.037587 3.399700 -2.652800 10.657200 -7.709604 3.412647 -2.367987 -84.160109 7.796490 2.587198 8.365367 -16.235871 -1.243690 -1.577857 -3.204101 15.037151 15.248827 22.039783 7.050400 -7.125000 0.000000 0.000000 -14.871700 55.829600 -4.015200 6.150727 9.779490 1.179732 36.181745 12.657438 -16.733274 -133.368215 45.659572 -102.134122 -1.984541 0.678649 -31.278058 -39.706568 -16.079721 14.146816 7.125000 0.000000 0.000000 -10.770541 -52.820176 2.103643 
2.050488 17.449417 5.148540 1.060590 -49.830921 3.819811 0.114254 0.797083 0.368452 -11.463254 -15.113817 -27.980605 0.328889 8.595226 23.839646 0.248339 2.998452 12.921063 0.168600 -2.645100 -7.292100 -2.496967 -2.572038 1.435807 26.073926 4.831909 8.199128 -4.318934 -11.310085 38.417051 -2.727998 3.733356 32.495270 -0.183000 -2.755600 7.599000 0.744643 3.970413 6.000465 0.579323 4.952513 -2.237712 1.046567 3.017932 -5.226167 -7.709587 -3.888640 -10.365736 5.160347 -4.644406 15.920936 3.416600 -2.648300 10.683100 -7.749572 3.391261 -2.376980 -84.088055 7.690947 2.181063 8.405967 -16.308850 -1.251904 -1.609850 -3.226402 14.433389 15.728506 22.151426 7.335200 -7.125000 0.000000 0.000000 -14.385300 56.067800 -3.963600 6.145895 9.759545 1.178956 36.183718 12.407142 -16.071678 -132.715397 46.060915 -101.768279 -2.077123 0.938758 -23.393441 -37.714200 -14.017531 11.743396 7.125000 0.000000 0.000000 -8.437109 -49.932158 1.039226 
1.901815 17.455663 5.358749 2.460726 -49.900364 2.351892 0.088205 0.859139 0.466195 -13.207935 -14.006602 -27.250985 0.414798 8.726279 24.454378 0.351871 2.453272 13.031826 0.113200 -2.169100 -5.973200 -2.567324 -2.549830 1.365511 25.010286 5.358029 6.647770 -5.325059 -12.410223 42.414549 -2.877872 2.933654 33.683604 -0.253800 -3.241200 8.951000 -0.286649 3.936011 6.228315 0.473966 4.827837 -2.155966 1.362412 2.963003 -5.153248 -8.007511 -3.961220 -10.390032 5.204149 -4.661074 15.671687 3.492400 -2.667800 10.583200 -7.806067 3.394389 -2.367476 -84.049582 7.574696 1.849486 8.420704 -16.338262 -1.257708 -1.565803 -3.260434 14.052514 15.518541 22.338704 7.278300 -7.125000 0.000000 0.000000 -14.739400 56.220700 -4.119200 6.132463 9.737256 1.167757 36.226509 12.068266 -15.344042 -131.734874 46.675007 -101.150130 -2.135834 1.236821 -13.519226 -37.050260 -11.918583 9.972810 7.125000 0.000000 0.000000 -7.526574 -47.274232 0.425060 
1.753758 17.477677 5.571109 3.045104 -50.160279 1.423902 0.089974 0.903370 0.542195 -14.216034 -12.793204 -26.677300 0.499488 8.856990 25.019243 0.469190 1.895885 13.200074 0.003600 -0.388900 -1.068600 -2.677530 -2.514905 1.281942 24.585538 5.935587 5.331789 -6.321971 -13.383800 46.333705 -2.775601 2.865354 32.815156 -0.191200 -2.816200 7.767300 -0.657736 3.878964 6.475003 0.384623 4.728980 -1.993328 1.329733 2.893933 -4.764075 -7.972404 -3.894344 -10.795973 5.279484 -4.544466 15.367692 3.536200 -2.583100 10.509400 -7.859520 3.377043 -2.321103 -83.753516 6.975044 1.323046 8.316398 -16.141880 -1.221355 -1.540461 -3.243247 13.984343 15.277491 22.180330 7.111400 -7.125000 0.000000 0.000000 -14.905800 55.989600 -4.083000 6.108909 9.717421 1.143910 36.290109 11.690302 -14.802690 -130.429436 47.474512 -100.277608 -2.149954 1.536514 -2.830387 -38.052003 -10.073465 8.943727 7.125000 0.000000 0.000000 -8.208618 -45.147187 0.029711 
1.621673 17.494981 5.753160 3.168164 -50.444810 0.830037 0.112520 0.938395 0.622556 -14.848346 -11.285486 -26.303871 0.581571 8.996915 25.610550 0.681908 0.891521 13.271252 0.000600 0.163000 0.447800 -2.805367 -2.471808 1.204187 24.669004 6.500721 3.776882 -7.305628 -14.252231 50.148250 -2.522678 3.329010 30.573783 -0.058700 -1.563100 4.299700 -0.865552 3.805932 7.166853 0.330505 4.622399 -1.889894 1.252274 2.823000 -4.788658 -7.624501 -3.740560 -11.049230 5.203716 -4.376943 15.002645 3.445800 -2.463900 10.367600 -7.883462 3.324139 -2.289601 -83.332158 6.440309 1.223216 8.255168 -16.020503 -1.193816 -1.578367 -3.235753 13.409485 15.742667 22.060595 7.327200 -7.125000 0.000000 0.000000 -14.284100 55.971700 -3.901400 6.076721 9.708904 1.108426 36.347544 11.353295 -14.682189 -128.821640 48.404868 -99.176697 -2.119669 1.815145 7.485458 -40.679264 -8.517650 8.509661 7.125000 0.000000 0.000000 -10.360980 -43.524447 -0.389010 
1.490510 17.514333 5.939717 3.640093 -50.801806 0.043100 0.115391 0.997180 0.721750 -15.607111 -10.259760 -25.641875 0.673129 9.116911 26.166177 0.805352 0.096089 12.710169 0.020300 0.920600 2.530400 -2.927998 -2.443354 1.141774 24.434780 7.061674 2.054250 -8.332348 -15.051062 53.874466 -2.164780 3.305937 27.547433 -0.011500 -0.691800 1.901100 -1.320841 3.721207 7.849513 0.315060 4.469617 -1.885462 1.458481 2.748571 -5.191428 -7.714772 -3.567088 -10.656779 5.142523 -4.109038 14.622256 3.466900 -2.353500 10.083900 -7.905044 3.315204 -2.291610 -83.312279 6.517115 0.746531 8.322619 -16.144944 -1.222166 -1.598229 -3.221186 12.903477 16.101805 21.816142 7.447000 -7.125000 0.000000 0.000000 -13.723100 55.795400 -3.684800 6.039963 9.712190 1.067282 36.371049 11.113662 -14.986598 -127.064429 49.345031 -97.969919 -2.042657 2.070921 16.549166 -44.159763 -6.859405 8.081314 7.125000 0.000000 0.000000 -13.206733 -41.819608 -1.072882 
1.351974 17.544744 6.150439 4.156632 -51.040678 -0.584441 0.104161 1.052573 0.802840 -16.264096 -9.866664 -24.799580 0.721536 9.155120 26.482628 0.959625 -0.813851 12.263726 0.300300 3.523500 9.739800 -3.031923 -2.426385 1.081108 23.941192 7.423833 0.226540 -9.378882 -15.761950 57.366304 -1.709948 2.203762 24.186993 -0.006200 -0.506800 1.392500 -1.591320 3.604580 7.970310 0.269162 4.291178 -1.806054 1.523512 2.648688 -5.016298 -7.856232 -3.428348 -10.685329 5.170690 -3.871965 14.377355 3.542400 -2.245800 9.944200 -7.950001 3.311316 -2.272085 -83.231711 6.193192 0.513240 8.327597 -16.144506 -1.220634 -1.604072 -3.227365 12.481458 16.298394 21.775529 7.540100 -7.125000 0.000000 0.000000 -13.468900 55.800200 -3.616300 6.002188 9.724594 1.025771 36.346226 10.994626 -15.621012 -125.333734 50.193956 -96.787919 -1.920481 2.301796 23.716217 -47.854633 -4.641874 6.961195 7.125000 0.000000 0.000000 -16.020397 -39.319550 -2.336338 
1.222552 17.550989 6.351945 4.653994 -50.989624 -1.056399 0.090739 1.101898 0.893229 -17.540218 -8.568506 -24.148649 0.729775 9.122759 26.600789 1.149904 -2.016742 11.145347 0.003700 -0.392100 -1.077400 -3.116283 -2.410686 1.023599 23.403793 7.520478 -2.000903 -10.387755 -16.387410 60.601126 -1.230757 0.786134 20.717065 0.000000 -0.036000 0.098900 -1.712125 3.448692 7.956607 0.169799 4.075632 -1.695526 1.341981 2.518599 -4.599805 -7.862965 -3.393673 -11.211920 5.205997 -3.796002 14.328744 3.579300 -2.194200 10.021600 -8.027231 3.269672 -2.232339 -82.881903 5.311655 0.286511 8.208891 -15.887885 -1.160469 -1.564430 -3.287986 12.558585 15.878660 22.413926 7.505900 -7.125000 0.000000 0.000000 -14.321900 56.384700 -4.056400 5.967649 9.743305 0.989140 36.267110 10.987603 -16.411586 -123.825256 50.873134 -95.770023 -1.760879 2.506552 28.540679 -51.147259 -1.445337 4.293420 7.125000 0.000000 0.000000 -18.037226 -35.227188 -4.537904 
1.094255 17.561228 6.551812 5.475589 -50.855932 -1.771793 0.066733 1.160755 0.984058 -19.024867 -7.304129 -23.519745 0.751524 9.083856 26.637123 1.127711 -2.210793 9.674776 0.549500 -4.748800 -13.193400 -3.179117 -2.401871 0.985720 22.521784 7.432581 -4.321638 -11.291065 -16.902180 63.388810 -0.760445 -0.894806 17.635322 -0.000100 0.063200 -0.173500 -2.143634 3.302606 8.046037 0.124149 3.839608 -1.688689 1.473422 2.398544 -4.626111 -8.085940 -3.357404 -11.109670 5.114712 -3.684226 14.253483 3.598900 -2.171500 9.949600 -8.095523 3.253652 -2.209406 -82.734235 4.866975 0.269239 8.029966 -15.531091 -1.082545 -1.594012 -3.290299 12.674628 15.965667 22.539870 7.592500 -7.125000 0.000000 0.000000 -14.283000 56.539000 -4.098800 5.940341 9.764261 0.961356 36.138495 11.057399 -17.161117 -122.724451 51.333244 -95.042542 -1.586419 2.679810 30.779760 -53.567669 2.828316 -0.434267 7.125000 0.000000 0.000000 -18.793068 -29.145151 -7.642803 
0.958587 17.610376 6.756595 6.200534 -50.685902 -2.325634 0.040262 1.216573 1.041027 -19.548685 -7.937206 -22.488967 0.755805 9.025316 26.594056 1.098897 -2.157865 9.714787 0.009700 -0.636300 -1.748500 -3.220159 -2.398346 0.971121 21.638330 7.321680 -6.550363 -12.023601 -17.298828 65.584040 -0.302243 -2.655367 14.948679 -0.017400 -0.852700 2.343500 -2.554682 3.139041 8.031414 0.069358 3.582117 -1.703232 1.565971 2.270190 -4.651664 -8.154479 -3.326331 -10.962086 4.965006 -3.621370 14.198137 3.551100 -2.163700 9.870400 -8.165014 3.240383 -2.196118 -82.512436 4.510810 0.417798 7.851020 -15.189810 -1.008623 -1.683591 -3.250507 12.900572 16.500598 22.340078 7.823600 -7.125000 0.000000 0.000000 -13.526400 56.450000 -3.846600 5.925045 9.784235 0.946558 35.985858 11.144378 -17.676428 -122.205867 51.538666 -94.718783 -1.443067 2.808569 30.427658 -54.740620 7.614409 -6.425415 7.125000 0.000000 0.000000 -18.338242 -21.936342 -10.706479 
